<svg width="132" height="48" viewBox="0 0 132 48" fill="none" xmlns="http://www.w3.org/2000/svg">
<path fill-rule="evenodd" clip-rule="evenodd" d="M41.8616 28.7395V13.5664L51.179 22.493C51.746 23.0579 52.2686 23.6449 52.7689 24.2651V14.1423H54.9593V29.3154L45.464 20.2226C44.9414 19.7132 44.4744 19.1815 44.0519 18.5835V28.7395H41.8616ZM120.259 28.7395L125.018 21.0976L120.815 14.1423H123.316L125.429 17.7085C125.707 18.1737 125.963 18.6721 126.207 19.1594C126.463 18.6721 126.73 18.2069 127.008 17.7307L129.243 14.1423H131.678L127.397 21.0643L132.011 28.7395H129.376L126.93 24.5973C126.663 24.1211 126.407 23.6116 126.152 23.1243C125.907 23.6116 125.629 24.11 125.351 24.5752L122.794 28.7395H120.259ZM107.928 28.7395V14.1312H116.112V16.158H110.308V19.8128H116.112V21.895H110.308V26.613H116.112V28.7395H107.928ZM97.2656 29.3043L90.7167 14.1312H93.1961L96.4761 21.9171C96.8097 22.6813 97.0765 23.4455 97.2544 24.254C97.4435 23.4566 97.7214 22.6702 98.055 21.9171L101.324 14.1312H103.792L97.2656 29.3043ZM77.808 26.5909H79.8093C82.1443 26.5909 84.0233 26.2918 84.9684 23.8664C85.2463 23.1686 85.3909 22.3491 85.3909 21.4187C85.3909 20.4884 85.2463 19.6689 84.9684 18.9711C83.9788 16.457 81.9552 16.2466 79.5203 16.2466H77.7969V26.5909H77.808ZM75.4286 28.7395V14.1312H78.6419C82.2332 14.1312 85.6133 14.2531 87.2255 17.9854C87.6591 18.9933 87.8815 20.1451 87.8815 21.452C87.8815 22.7478 87.6591 23.8996 87.2255 24.8964C85.7022 28.3961 82.7002 28.7395 79.2868 28.7395H75.4286ZM61.4192 28.7395V14.1312H69.6025V16.158H63.7986V19.8128H69.6025V21.895H63.7986V26.613H69.6025V28.7395H61.4192Z" fill="#010B24"/>
<path fill-rule="evenodd" clip-rule="evenodd" d="M28.4414 48H26.6179V37.5118C26.8181 37.3456 27.0182 37.1684 27.2294 37.0023V22.527C27.4407 22.084 27.652 21.6299 27.841 21.1758V0H28.4525V48H28.4414ZM24.2719 27.4444C24.4832 27.1564 24.6833 26.8685 24.8834 26.5805V11.2635C25.0947 10.6987 25.2948 10.1449 25.4949 9.58006V48H23.6715V39.6714C23.8716 39.5385 24.0718 39.4056 24.283 39.2727V27.4444H24.2719ZM21.3144 30.9995C21.5145 30.778 21.7257 30.5565 21.9259 30.335V17.9419C22.1371 17.5321 22.3373 17.1334 22.5374 16.7236V48H20.7139V41.3659C20.9141 41.2663 21.1142 41.1555 21.3255 41.0558V30.9995H21.3144ZM18.3568 33.8459C18.5569 33.6687 18.7682 33.4915 18.9683 33.3032V23.1251C19.1685 22.8039 19.3797 22.4716 19.5798 22.1504V48.0111H17.7564V42.7171C17.9565 42.6396 18.1567 42.551 18.3679 42.4624V33.8459H18.3568ZM15.3993 36.216C15.5994 36.0609 15.8106 35.9169 16.0108 35.7619V27.4112C16.2109 27.1343 16.4222 26.8685 16.6223 26.5916V48H14.7989V43.7582C14.999 43.6917 15.1991 43.6253 15.4104 43.5588V36.216H15.3993ZM12.4417 38.2317C12.6418 38.0988 12.842 37.9769 13.0532 37.844V31.0328C13.2534 30.8002 13.4646 30.5676 13.6648 30.335V47.9889H11.8413V44.5778C12.0414 44.5335 12.2416 44.4781 12.4528 44.4227V38.2317H12.4417ZM9.48416 39.9705C9.6843 39.8597 9.88443 39.749 10.0957 39.6382V34.156C10.2958 33.9566 10.496 33.7573 10.7072 33.5579C10.7072 38.3756 10.7072 43.1934 10.7072 48.0111H8.87264V45.2312C9.07277 45.198 9.27291 45.1537 9.48416 45.1204V39.9705ZM6.52662 41.4545C6.72675 41.3549 6.92689 41.2663 7.13814 41.1666V36.803C7.33827 36.6368 7.53841 36.4596 7.74966 36.2935C7.74966 40.192 7.74966 44.1015 7.74966 48H5.91509V45.6742C6.11523 45.6521 6.31536 45.6188 6.52662 45.5967V41.4545ZM3.56907 42.7393C3.7692 42.6617 3.96934 42.5731 4.18059 42.4956V39.0844C4.38073 38.9405 4.58086 38.7965 4.79212 38.6414C4.79212 41.7646 4.79212 44.8768 4.79212 48H2.95755V45.9843C3.15768 45.9732 3.35782 45.9511 3.56907 45.9289V42.7393ZM0.611523 43.8357C0.811658 43.7693 1.01179 43.6917 1.22305 43.6253V41.0115C1.42318 40.8897 1.62332 40.7679 1.83457 40.6461C1.83457 43.0937 1.83457 45.5524 1.83457 48H0V46.1615L0.611523 46.1394V43.8357Z" fill="#010B24"/>
<path fill-rule="evenodd" clip-rule="evenodd" d="M46.6103 34.0793V35.1536C46.1211 34.7106 45.5763 34.489 44.987 34.489C44.3421 34.489 43.8195 34.6995 43.4081 35.1314C43.0079 35.5523 42.7966 36.095 42.7966 36.7595C42.7966 37.3908 43.0079 37.9224 43.4193 38.3543C43.8307 38.7752 44.3532 38.9967 44.987 38.9967C45.5763 38.9967 46.1211 38.7641 46.5992 38.31V39.3843C46.0988 39.6833 45.5429 39.8273 44.9536 39.8273C44.1197 39.8273 43.4193 39.5504 42.83 39.0077C42.1851 38.4097 41.8738 37.6676 41.8738 36.7595C41.8738 35.807 42.1962 35.0317 42.83 34.4337C43.3859 33.9131 44.0975 33.6584 44.9981 33.6584C45.6319 33.6584 46.1656 33.7913 46.6103 34.0793ZM52.5921 34.5333C53.1814 33.9464 53.9263 33.6473 54.8158 33.6473C55.7053 33.6473 56.4503 33.9464 57.0395 34.5333C57.6288 35.1203 57.929 35.8513 57.929 36.7373C57.929 37.6123 57.6288 38.3543 57.0395 38.9413C56.4503 39.5283 55.7053 39.8273 54.8158 39.8273C53.9263 39.8273 53.1814 39.5283 52.5921 38.9413C52.0028 38.3543 51.7026 37.6233 51.7026 36.7373C51.7026 35.8624 52.0028 35.1203 52.5921 34.5333ZM53.237 38.3543C53.6484 38.7752 54.1821 38.9856 54.8158 38.9856C55.4607 38.9856 55.9833 38.7752 56.3947 38.3543C56.8061 37.9334 57.0173 37.3908 57.0173 36.7373C57.0173 36.0728 56.8061 35.5412 56.3947 35.1203C55.9833 34.6995 55.4496 34.489 54.8158 34.489C54.171 34.489 53.6484 34.6995 53.237 35.1203C52.8256 35.5412 52.6143 36.0839 52.6143 36.7373C52.6255 37.4018 52.8256 37.9334 53.237 38.3543ZM64.2444 39.7055H63.3327V33.3594L67.68 37.8781V33.7581H68.5918V40.071L64.2444 35.5523V39.7055ZM77.5978 34.6552L76.864 35.0871C76.8084 34.9431 76.7084 34.8213 76.5972 34.7106C76.4193 34.5666 76.1969 34.5001 75.9523 34.5001C75.6854 34.5001 75.4742 34.5666 75.3296 34.7106C75.1851 34.8435 75.1073 35.0207 75.1073 35.22C75.1073 35.5301 75.3185 35.7738 75.7522 35.9399L76.3526 36.1836C77.2976 36.5601 77.7646 37.1471 77.7646 37.9334C77.7646 38.4983 77.5867 38.9524 77.2198 39.3068C76.8529 39.6612 76.397 39.8384 75.83 39.8384C75.2518 39.8384 74.7848 39.639 74.4179 39.2403C74.1288 38.9081 73.9621 38.5315 73.9176 38.0774L74.8293 37.8781C74.8293 38.166 74.9183 38.4208 75.085 38.6312C75.2741 38.8638 75.5409 38.9856 75.8633 38.9856C76.1413 38.9856 76.3748 38.897 76.5638 38.7087C76.7528 38.5204 76.8418 38.2878 76.8418 37.9888C76.8418 37.7119 76.764 37.5015 76.6083 37.3575C76.4526 37.2136 76.2414 37.0807 75.9856 36.9699L75.4075 36.7262C74.5958 36.3829 74.1844 35.8845 74.1844 35.22C74.1844 34.7881 74.3401 34.4226 74.6514 34.1125C74.9627 33.8024 75.3964 33.6473 75.9301 33.6473C76.4193 33.6473 76.8195 33.7802 77.1309 34.046C77.331 34.2232 77.4867 34.4226 77.5978 34.6552ZM83.1571 33.7581H84.0689V37.3465C84.0689 37.8116 84.1356 38.1549 84.2579 38.3765C84.3579 38.5426 84.5136 38.6866 84.7026 38.8084C84.9028 38.9302 85.1251 38.9856 85.3697 38.9856C85.6144 38.9856 85.8367 38.9302 86.0369 38.8084C86.237 38.6866 86.3815 38.5426 86.4816 38.3765C86.6039 38.1549 86.6706 37.8116 86.6706 37.3465V33.7581H87.5823V37.579C87.5823 38.1992 87.3933 38.7198 87.0264 39.1185C86.5928 39.5837 86.0369 39.8162 85.3697 39.8162C84.6915 39.8162 84.1356 39.5837 83.7131 39.1185C83.3462 38.7198 83.1571 38.1992 83.1571 37.579V33.7581ZM93.2862 33.7581H94.1979V38.8527H95.9547V39.7055H93.2862V33.7581ZM103.838 34.6109H102.459V39.7055H101.547V34.6109H100.169V33.7581H103.838V34.6109ZM108.886 33.7581H109.797V39.7055H108.886V33.7581ZM116.402 39.7055H115.49V33.3594L119.837 37.8781V33.7581H120.749V40.071L116.402 35.5523V39.7055ZM129.533 37.4461V36.6044H132.001V36.6487C132.001 37.6787 131.701 38.4872 131.112 39.052C130.589 39.5615 129.9 39.8052 129.077 39.8052C128.243 39.8052 127.565 39.5393 127.042 38.9967C126.453 38.3875 126.153 37.6455 126.153 36.7484C126.153 36.3054 126.231 35.8845 126.397 35.4969C126.564 35.1093 126.764 34.7881 127.031 34.5333C127.298 34.2675 127.632 34.046 128.021 33.891C128.41 33.7249 128.832 33.6473 129.288 33.6473C129.877 33.6473 130.4 33.7692 130.856 34.0239C131.267 34.2565 131.59 34.5555 131.823 34.9099L131.101 35.4194C130.889 35.1203 130.645 34.8988 130.367 34.7438C130.078 34.5666 129.722 34.489 129.31 34.489C128.666 34.489 128.143 34.6995 127.732 35.1093C127.531 35.3086 127.376 35.5523 127.265 35.8513C127.153 36.1503 127.098 36.4604 127.098 36.7816C127.098 37.4129 127.309 37.9556 127.72 38.3986C128.099 38.7973 128.599 38.9967 129.222 38.9967C129.755 38.9967 130.2 38.8195 130.556 38.4761C130.845 38.1882 131.012 37.8559 131.056 37.4683H129.533V37.4461Z" fill="#010B24"/>
</svg>
