<svg width="132" height="48" viewBox="0 0 132 48" fill="none" xmlns="http://www.w3.org/2000/svg">
<g clip-path="url(#clip0)">
<path fill-rule="evenodd" clip-rule="evenodd" d="M41.8613 28.7402V13.5671L51.1787 22.4938C51.7458 23.0586 52.2683 23.6456 52.7687 24.2658V14.1431H54.959V29.3161L45.4638 20.2233C44.9412 19.7139 44.4742 19.1823 44.0517 18.5842V28.7402H41.8613ZM120.259 28.7402L125.017 21.0983L120.815 14.1431H123.316L125.429 17.7093C125.707 18.1744 125.962 18.6728 126.207 19.1601C126.463 18.6728 126.73 18.2077 127.008 17.7314L129.242 14.1431H131.677L127.397 21.0651L132.011 28.7402H129.376L126.93 24.5981C126.663 24.1218 126.407 23.6124 126.151 23.1251C125.907 23.6124 125.629 24.1107 125.351 24.5759L122.794 28.7402H120.259ZM107.928 28.7402V14.132H116.111V16.1587H110.307V19.8136H116.111V21.8957H110.307V26.6137H116.111V28.7402H107.928ZM97.2653 29.305L90.7164 14.132H93.1959L96.4759 21.9179C96.8094 22.682 97.0763 23.4462 97.2542 24.2547C97.4432 23.4573 97.7212 22.671 98.0547 21.9179L101.324 14.132H103.792L97.2653 29.305ZM77.8078 26.5916H79.8091C82.144 26.5916 84.0231 26.2926 84.9681 23.8671C85.2461 23.1694 85.3906 22.3498 85.3906 21.4195C85.3906 20.4892 85.2461 19.6696 84.9681 18.9718C83.9786 16.4578 81.955 16.2473 79.52 16.2473H77.7966V26.5916H77.8078ZM75.4284 28.7402V14.132H78.6417C82.233 14.132 85.613 14.2538 87.2252 17.9862C87.6588 18.994 87.8812 20.1458 87.8812 21.4527C87.8812 22.7485 87.6588 23.9003 87.2252 24.8971C85.702 28.3969 82.6999 28.7402 79.2865 28.7402H75.4284ZM61.4189 28.7402V14.132H69.6022V16.1587H63.7983V19.8136H69.6022V21.8957H63.7983V26.6137H69.6022V28.7402H61.4189Z" fill="white"/>
<path fill-rule="evenodd" clip-rule="evenodd" d="M28.4414 48H26.6179V37.5118C26.8181 37.3456 27.0182 37.1684 27.2294 37.0023V22.527C27.4407 22.084 27.652 21.6299 27.841 21.1758V0H28.4525V48H28.4414ZM24.2719 27.4444C24.4832 27.1564 24.6833 26.8685 24.8834 26.5805V11.2635C25.0947 10.6987 25.2948 10.1449 25.4949 9.58006V48H23.6715V39.6714C23.8716 39.5385 24.0718 39.4056 24.283 39.2727V27.4444H24.2719ZM21.3144 30.9995C21.5145 30.778 21.7257 30.5565 21.9259 30.335V17.9419C22.1371 17.5321 22.3373 17.1334 22.5374 16.7236V48H20.7139V41.3659C20.9141 41.2663 21.1142 41.1555 21.3255 41.0558V30.9995H21.3144ZM18.3568 33.8459C18.5569 33.6687 18.7682 33.4915 18.9683 33.3032V23.1251C19.1685 22.8039 19.3797 22.4716 19.5798 22.1504V48.0111H17.7564V42.7171C17.9565 42.6396 18.1567 42.551 18.3679 42.4624V33.8459H18.3568ZM15.3993 36.216C15.5994 36.0609 15.8106 35.9169 16.0108 35.7619V27.4112C16.2109 27.1343 16.4222 26.8685 16.6223 26.5916V48H14.7989V43.7582C14.999 43.6917 15.1991 43.6253 15.4104 43.5588V36.216H15.3993ZM12.4417 38.2317C12.6418 38.0988 12.842 37.9769 13.0532 37.844V31.0328C13.2534 30.8002 13.4646 30.5676 13.6648 30.335V47.9889H11.8413V44.5778C12.0414 44.5335 12.2416 44.4781 12.4528 44.4227V38.2317H12.4417ZM9.48416 39.9705C9.6843 39.8597 9.88443 39.749 10.0957 39.6382V34.156C10.2958 33.9566 10.496 33.7573 10.7072 33.5579C10.7072 38.3756 10.7072 43.1934 10.7072 48.0111H8.87264V45.2312C9.07277 45.198 9.27291 45.1537 9.48416 45.1204V39.9705ZM6.52662 41.4545C6.72675 41.3549 6.92689 41.2663 7.13814 41.1666V36.803C7.33827 36.6368 7.53841 36.4596 7.74966 36.2935C7.74966 40.192 7.74966 44.1015 7.74966 48H5.91509V45.6742C6.11523 45.6521 6.31536 45.6188 6.52662 45.5967V41.4545ZM3.56907 42.7393C3.7692 42.6617 3.96934 42.5731 4.18059 42.4956V39.0844C4.38073 38.9405 4.58086 38.7965 4.79212 38.6414C4.79212 41.7646 4.79212 44.8768 4.79212 48H2.95755V45.9843C3.15768 45.9732 3.35782 45.9511 3.56907 45.9289V42.7393ZM0.611523 43.8357C0.811658 43.7693 1.01179 43.6917 1.22305 43.6253V41.0115C1.42318 40.8897 1.62332 40.7679 1.83457 40.6461C1.83457 43.0937 1.83457 45.5524 1.83457 48H0V46.1615L0.611523 46.1394V43.8357Z" fill="white"/>
<path fill-rule="evenodd" clip-rule="evenodd" d="M46.6101 34.0784V35.1527C46.1208 34.7097 45.576 34.4882 44.9867 34.4882C44.3419 34.4882 43.8193 34.6986 43.4079 35.1306C43.0076 35.5514 42.7964 36.0941 42.7964 36.7586C42.7964 37.3899 43.0076 37.9215 43.419 38.3534C43.8304 38.7743 44.353 38.9958 44.9867 38.9958C45.576 38.9958 46.1208 38.7632 46.5989 38.3091V39.3834C46.0986 39.6825 45.5427 39.8264 44.9534 39.8264C44.1195 39.8264 43.419 39.5496 42.8297 39.0069C42.1849 38.4088 41.8735 37.6668 41.8735 36.7586C41.8735 35.8061 42.196 35.0309 42.8297 34.4328C43.3857 33.9123 44.0973 33.6575 44.9979 33.6575C45.6316 33.6575 46.1653 33.7905 46.6101 34.0784ZM52.5919 34.5325C53.1812 33.9455 53.9261 33.6465 54.8156 33.6465C55.7051 33.6465 56.45 33.9455 57.0393 34.5325C57.6286 35.1195 57.9288 35.8504 57.9288 36.7365C57.9288 37.6114 57.6286 38.3534 57.0393 38.9404C56.45 39.5274 55.7051 39.8264 54.8156 39.8264C53.9261 39.8264 53.1812 39.5274 52.5919 38.9404C52.0026 38.3534 51.7024 37.6225 51.7024 36.7365C51.7024 35.8615 52.0026 35.1195 52.5919 34.5325ZM53.2367 38.3534C53.6481 38.7743 54.1818 38.9847 54.8156 38.9847C55.4605 38.9847 55.983 38.7743 56.3944 38.3534C56.8058 37.9326 57.0171 37.3899 57.0171 36.7365C57.0171 36.0719 56.8058 35.5403 56.3944 35.1195C55.983 34.6986 55.4493 34.4882 54.8156 34.4882C54.1707 34.4882 53.6481 34.6986 53.2367 35.1195C52.8254 35.5403 52.6141 36.083 52.6141 36.7365C52.6252 37.401 52.8254 37.9326 53.2367 38.3534ZM64.2442 39.7046H63.3324V33.3585L67.6798 37.8772V33.7572H68.5915V40.0701L64.2442 35.5514V39.7046ZM77.5976 34.6543L76.8638 35.0863C76.8082 34.9423 76.7081 34.8204 76.5969 34.7097C76.419 34.5657 76.1967 34.4993 75.952 34.4993C75.6852 34.4993 75.4739 34.5657 75.3294 34.7097C75.1849 34.8426 75.107 35.0198 75.107 35.2192C75.107 35.5293 75.3183 35.7729 75.7519 35.939L76.3523 36.1827C77.2974 36.5593 77.7644 37.1462 77.7644 37.9326C77.7644 38.4974 77.5865 38.9515 77.2196 39.3059C76.8526 39.6603 76.3968 39.8375 75.8297 39.8375C75.2516 39.8375 74.7846 39.6382 74.4177 39.2395C74.1286 38.9072 73.9618 38.5307 73.9173 38.0766L74.8291 37.8772C74.8291 38.1652 74.918 38.4199 75.0848 38.6303C75.2738 38.8629 75.5407 38.9847 75.8631 38.9847C76.1411 38.9847 76.3746 38.8961 76.5636 38.7079C76.7526 38.5196 76.8415 38.287 76.8415 37.988C76.8415 37.7111 76.7637 37.5007 76.608 37.3567C76.4524 37.2127 76.2411 37.0798 75.9854 36.969L75.4072 36.7254C74.5956 36.3821 74.1842 35.8837 74.1842 35.2192C74.1842 34.7872 74.3398 34.4217 74.6512 34.1116C74.9625 33.8015 75.3961 33.6465 75.9298 33.6465C76.419 33.6465 76.8193 33.7794 77.1306 34.0452C77.3308 34.2224 77.4864 34.4217 77.5976 34.6543ZM83.1569 33.7572H84.0686V37.3456C84.0686 37.8108 84.1353 38.1541 84.2576 38.3756C84.3577 38.5417 84.5134 38.6857 84.7024 38.8075C84.9025 38.9294 85.1249 38.9847 85.3695 38.9847C85.6141 38.9847 85.8365 38.9294 86.0366 38.8075C86.2367 38.6857 86.3813 38.5417 86.4814 38.3756C86.6037 38.1541 86.6704 37.8108 86.6704 37.3456V33.7572H87.5821V37.5782C87.5821 38.1984 87.3931 38.7189 87.0262 39.1176C86.5925 39.5828 86.0366 39.8154 85.3695 39.8154C84.6913 39.8154 84.1353 39.5828 83.7128 39.1176C83.3459 38.7189 83.1569 38.1984 83.1569 37.5782V33.7572ZM93.2859 33.7572H94.1977V38.8518H95.9544V39.7046H93.2859V33.7572ZM103.837 34.61H102.459V39.7046H101.547V34.61H100.168V33.7572H103.837V34.61ZM108.885 33.7572H109.797V39.7046H108.885V33.7572ZM116.402 39.7046H115.49V33.3585L119.837 37.8772V33.7572H120.749V40.0701L116.402 35.5514V39.7046ZM129.533 37.4453V36.6036H132.001V36.6479C132.001 37.6779 131.701 38.4863 131.111 39.0512C130.589 39.5606 129.899 39.8043 129.077 39.8043C128.243 39.8043 127.565 39.5385 127.042 38.9958C126.453 38.3867 126.153 37.6446 126.153 36.7475C126.153 36.3045 126.23 35.8837 126.397 35.496C126.564 35.1084 126.764 34.7872 127.031 34.5325C127.298 34.2667 127.631 34.0452 128.02 33.8901C128.41 33.724 128.832 33.6465 129.288 33.6465C129.877 33.6465 130.4 33.7683 130.856 34.023C131.267 34.2556 131.59 34.5546 131.823 34.9091L131.1 35.4185C130.889 35.1195 130.644 34.898 130.366 34.7429C130.077 34.5657 129.722 34.4882 129.31 34.4882C128.665 34.4882 128.143 34.6986 127.731 35.1084C127.531 35.3078 127.376 35.5514 127.264 35.8504C127.153 36.1495 127.098 36.4596 127.098 36.7808C127.098 37.4121 127.309 37.9547 127.72 38.3977C128.098 38.7965 128.599 38.9958 129.221 38.9958C129.755 38.9958 130.2 38.8186 130.555 38.4753C130.845 38.1873 131.011 37.8551 131.056 37.4674H129.533V37.4453Z" fill="white"/>
</g>
<defs>
<clipPath id="clip0">
<rect width="132" height="48" fill="white"/>
</clipPath>
</defs>
</svg>
