<svg width="103" height="31" viewBox="0 0 103 31" fill="none" xmlns="http://www.w3.org/2000/svg">
<path d="M0.0400391 0H3.77888L10.8568 11.9254V0H13.7021V16.4926H10.4571L2.88532 3.85211V16.4926H0.0400391V0Z" fill="white"/>
<path d="M20.0046 0H30.5157V2.42199H23.1321V6.94303H29.0578V9.24969H23.1321V14.0706H30.9155V16.4926H20.0046V0Z" fill="white"/>
<path d="M41.1418 14.0706C43.0073 14.0706 44.4025 13.5785 45.3274 12.5943C46.2523 11.5948 46.7148 10.1647 46.7148 8.30396V8.11943C46.7148 4.32113 44.8493 2.42199 41.1183 2.42199H39.3076V14.0706H41.1418ZM36.1802 0H41.2829C44.1203 0 46.2759 0.730441 47.7494 2.19132C49.2387 3.63683 49.9833 5.59748 49.9833 8.07329V8.28089C49.9833 10.7721 49.2387 12.7635 47.7494 14.2551C46.2602 15.7468 44.089 16.4926 41.2359 16.4926H36.1802V0Z" fill="white"/>
<path d="M53.3107 0H56.5792L60.953 13.3786L65.3502 0H68.2896L62.599 16.4926H58.9777L53.3107 0Z" fill="white"/>
<path d="M73.1929 0H83.704V2.42199H76.3204V6.94303H82.2461V9.24969H76.3204V14.0706H84.1038V16.4926H73.1929V0Z" fill="white"/>
<path d="M93.6952 8.02716L88.6631 0H92.1903L95.7645 5.8589L99.3153 0H102.537L97.5752 7.95796L102.96 16.4926H99.3858L95.4353 10.057L91.4848 16.4926H88.2868L93.6952 8.02716Z" fill="white"/>
<path d="M3.67772 31C2.5735 31 1.70248 30.6636 1.06464 29.9908C0.433662 29.3113 0.118172 28.43 0.118172 27.3468V27.2661C0.118172 26.2031 0.447379 25.3251 1.10579 24.6322C1.77106 23.9325 2.62837 23.5827 3.67772 23.5827C4.45958 23.5827 5.12828 23.7744 5.68382 24.1579C6.23936 24.5346 6.56856 25.1065 6.67144 25.8735H5.77641C5.58437 24.8105 4.89167 24.279 3.69829 24.279C2.86156 24.279 2.21001 24.5515 1.74363 25.0964C1.27725 25.6346 1.04407 26.3545 1.04407 27.256V27.3367C1.04407 28.2517 1.27039 28.975 1.72305 29.5064C2.17571 30.0312 2.82727 30.2936 3.67772 30.2936C4.43901 30.2936 5.01169 30.0817 5.39576 29.6578C5.77984 29.234 5.97873 28.6789 5.99245 27.9927H3.84232V27.2661H6.8669V27.801C6.8669 28.8236 6.57542 29.6141 5.99245 30.1725C5.41634 30.7242 4.64476 31 3.67772 31Z" fill="white"/>
<path d="M25.1615 23.6937H27.3733C28.1346 23.6937 28.7519 23.8585 29.2251 24.1882C29.7052 24.5178 29.9453 25.0224 29.9453 25.7019V25.7423C29.9453 26.3007 29.7772 26.7447 29.4412 27.0744C29.1051 27.3973 28.6662 27.6092 28.1243 27.7101L30.3774 30.9092H29.3794L27.1882 27.7707H26.0565V30.9092H25.1615V23.6937ZM27.4351 27.0744C28.5119 27.0744 29.0502 26.6303 29.0502 25.7423V25.7019C29.0502 25.231 28.9131 24.8979 28.6387 24.7028C28.3644 24.501 27.9632 24.4001 27.4351 24.4001H26.0565V27.0744H27.4351Z" fill="white"/>
<path d="M51.5894 30.2734C52.3987 30.2734 53.04 30.0009 53.5132 29.456C53.9933 28.911 54.2333 28.1979 54.2333 27.3166V27.2358C54.2333 26.4016 53.9933 25.7053 53.5132 25.1469C53.0331 24.5885 52.385 24.3093 51.5688 24.3093C50.7321 24.3093 50.0737 24.5817 49.5936 25.1267C49.1135 25.6649 48.8734 26.3747 48.8734 27.256V27.3367C48.8734 28.1979 49.1306 28.9043 49.645 29.456C50.1663 30.0009 50.8144 30.2734 51.5894 30.2734ZM51.5894 31C50.5195 31 49.645 30.6502 48.966 29.9505C48.287 29.2441 47.9475 28.3762 47.9475 27.3468V27.2661C47.9475 26.2233 48.2836 25.3521 48.9557 24.6524C49.6347 23.9527 50.5058 23.6028 51.5688 23.6028C52.6319 23.6028 53.496 23.9527 54.1613 24.6524C54.8266 25.3453 55.1592 26.2098 55.1592 27.2459V27.3267C55.1592 28.3627 54.8266 29.234 54.1613 29.9404C53.496 30.6468 52.6387 31 51.5894 31Z" fill="white"/>
<path d="M76.0252 31C75.1747 31 74.5197 30.7679 74.0602 30.3037C73.6076 29.8327 73.3812 29.1566 73.3812 28.2753V23.6937H74.2763V28.1744C74.2763 28.9211 74.4134 29.4593 74.6878 29.789C74.969 30.1119 75.4216 30.2734 76.0457 30.2734C76.6767 30.2734 77.1465 30.1119 77.4552 29.789C77.7638 29.4661 77.9181 28.8841 77.9181 28.0432V23.6937H78.8131V28.1643C78.8131 29.0658 78.5799 29.7655 78.1136 30.2633C77.6472 30.7544 76.9511 31 76.0252 31Z" fill="white"/>
<path d="M97.3928 23.6937H99.4812C100.236 23.6937 100.853 23.8686 101.333 24.2184C101.813 24.5616 102.053 25.0897 102.053 25.8028V25.8432C102.053 26.5698 101.813 27.108 101.333 27.4578C100.86 27.801 100.243 27.9725 99.4812 27.9725H98.2878V30.9092H97.3928V23.6937ZM99.5429 27.2762C100.071 27.2762 100.472 27.1551 100.747 26.9129C101.021 26.664 101.158 26.3074 101.158 25.8432V25.8028C101.158 24.8677 100.62 24.4001 99.5429 24.4001H98.2878V27.2762H99.5429Z" fill="white"/>
</svg>
