<svg width="132" height="48" viewBox="0 0 132 48" fill="none" xmlns="http://www.w3.org/2000/svg">
<g clip-path="url(#clip0)">
<path fill-rule="evenodd" clip-rule="evenodd" d="M41.8579 28.7589V13.5735L51.1829 22.5018C51.7398 23.0641 52.2658 23.6561 52.7583 24.2752V14.1459H54.9669V29.3313L45.4628 20.2367C44.9458 19.7321 44.4737 19.1837 44.0517 18.5978V28.7589H41.8579ZM120.252 28.7589L125.007 21.1124L120.806 14.1459H123.307L125.417 17.7196C125.697 18.1844 125.947 18.6834 126.197 19.1677C126.443 18.6785 126.718 18.2089 127 17.7392L129.231 14.1459H131.684L127.39 21.0733L131.999 28.7589H129.368L126.914 24.6152C126.642 24.1382 126.386 23.6368 126.134 23.1476C125.888 23.6368 125.616 24.126 125.331 24.5957L122.769 28.7687L120.252 28.7589ZM107.928 28.7589V14.1459H116.109V16.1688H110.306V19.838H116.109V21.9221H110.306V26.643H116.109V28.7687L107.928 28.7589ZM97.2581 29.3313L90.7134 14.1459H93.1919L96.4753 21.9318C96.8115 22.686 97.0736 23.4707 97.2581 24.2752C97.4514 23.4714 97.7183 22.687 98.0556 21.9318L101.332 14.1459H103.786L97.2507 29.3313H97.2581ZM77.8008 26.6112H79.8057C82.1418 26.6112 84.0215 26.3079 84.9589 23.8912C85.2505 23.1091 85.392 22.2793 85.3761 21.4451C85.3922 20.6108 85.2506 19.781 84.9589 18.999C83.9774 16.4868 81.9431 16.2789 79.5136 16.2789H77.7959V26.6186L77.8008 26.6112ZM75.4229 28.7589V14.1459H78.6302C82.2228 14.1459 85.597 14.2633 87.219 17.9985C87.6726 19.0963 87.8956 20.2751 87.8742 21.4622C87.8968 22.6438 87.6737 23.8173 87.219 24.9088C85.6927 28.4067 82.689 28.7589 79.2805 28.7589H75.4229ZM61.4183 28.7589V14.1459H69.5997V16.1688H63.8011V19.838H69.6046V21.9221H63.8011V26.643H69.6046V28.7687L61.4183 28.7589Z" fill="white"/>
<path fill-rule="evenodd" clip-rule="evenodd" d="M0.606124 0.225042V48H0V0L0.606124 0.225042ZM5.91645 2.2015L6.52258 2.42654V15.4252L7.1287 15.2001V27.641L7.73483 27.8685V48.0024H5.91645V2.2015ZM21.3174 7.93273V9.92142L21.9235 9.69638V33.1448L22.5296 33.3698V48H20.7113V7.70769L21.3174 7.93273ZM18.3579 6.83198V11.0222L18.9641 10.7971V32.044L19.5702 32.2691V48H17.7518V6.6045L18.3579 6.83198ZM15.3985 5.73123V12.1229L16.0046 11.8979V30.9433L16.6107 31.1683V48H14.7924V5.50375L15.3985 5.73123ZM12.4538 4.63048V13.2237L13.0599 12.9986V29.8425L13.666 30.0676V48H11.8354V4.403L12.4415 4.63048H12.4538ZM9.48203 3.52729V14.3244L10.0882 14.0994V28.7418L10.6943 28.9668V48H8.87591V3.30225L9.48203 3.52729ZM3.56558 1.32579V48H2.95945V1.10075L3.56558 1.32579ZM25.4866 34.4706V48H23.6683V33.793L25.4866 34.4706ZM28.4461 35.5713V48H26.6277V34.8962L28.4461 35.5713Z" fill="white"/>
<path fill-rule="evenodd" clip-rule="evenodd" d="M41.8575 33.7123H43.1163C43.5335 33.7069 43.95 33.7479 44.358 33.8346C44.7141 33.9184 45.0486 34.0759 45.3396 34.2969C45.704 34.5692 45.9963 34.9261 46.1911 35.3365C46.3947 35.7652 46.4979 36.2345 46.493 36.7088C46.5071 37.3643 46.2976 38.0052 45.8985 38.5265C45.4995 39.0478 44.9347 39.4186 44.2967 39.5781C43.9008 39.6624 43.4966 39.7018 43.0918 39.6955H41.8501V33.7123H41.8575ZM42.7752 34.5733V38.8344H43.1703C43.7327 38.8676 44.2909 38.7202 44.7629 38.4137C45.0294 38.2167 45.2434 37.9576 45.3863 37.6591C45.5292 37.3607 45.5966 37.0318 45.5825 36.7014C45.5865 36.3505 45.5075 36.0035 45.3519 35.6887C45.2198 35.4087 45.021 35.1652 44.7727 34.9794C44.2947 34.6788 43.7346 34.5343 43.1703 34.566L42.7752 34.5733ZM54.294 33.7123V34.5733H51.9014V36.0899H54.2302V36.9509H51.9088V38.8344H54.3014V39.6955H50.9837V33.7123H54.294ZM58.132 33.7123H59.1136L60.7847 37.8829L62.4583 33.7123H63.4399L60.7749 40.0722L58.1124 33.7123H58.132ZM70.8582 33.7123V34.5733H68.4631V36.0899H70.7845V36.9509H68.4631V38.8344H70.8557V39.6955H67.5478V33.7123H70.8582ZM75.3808 33.7123H76.2985V38.8344H78.0605V39.6955H75.3808V33.7123ZM82.5905 34.4901C83.107 33.9508 83.7958 33.6075 84.5387 33.5194C85.2815 33.4313 86.0319 33.6037 86.6611 34.0071C87.2902 34.4105 87.7588 35.0197 87.9863 35.7301C88.2138 36.4405 88.1861 37.2076 87.9079 37.8998C87.6296 38.592 87.1183 39.166 86.4617 39.5232C85.805 39.8805 85.0441 39.9986 84.3095 39.8574C83.575 39.7162 82.9127 39.3245 82.4365 38.7494C81.9602 38.1744 81.6997 37.452 81.6997 36.7063C81.6892 36.296 81.7627 35.8878 81.9159 35.5067C82.0691 35.1257 82.2986 34.7798 82.5905 34.4901ZM83.2383 38.333C83.6648 38.7395 84.2322 38.9664 84.8223 38.9664C85.4124 38.9664 85.9798 38.7395 86.4063 38.333C86.8065 37.885 87.0276 37.3061 87.0276 36.7063C87.0276 36.1065 86.8065 35.5276 86.4063 35.0797C85.9798 34.6731 85.4124 34.4462 84.8223 34.4462C84.2322 34.4462 83.6648 34.6731 83.2383 35.0797C82.8381 35.5276 82.6171 36.1065 82.6171 36.7063C82.6171 37.3061 82.8381 37.885 83.2383 38.333ZM92.4283 33.7098H93.751C94.2117 33.6861 94.6693 33.7984 95.0663 34.0327C95.3035 34.1913 95.4941 34.4099 95.6184 34.6663C95.7468 34.9204 95.8132 35.2012 95.8123 35.4857C95.8203 35.734 95.772 35.9809 95.6708 36.2079C95.5697 36.4349 95.4184 36.6363 95.2283 36.7968C94.8104 37.1249 94.287 37.2901 93.7559 37.2616H93.3461V39.693H92.4283V33.7123V33.7098ZM93.3461 34.5537V36.4201H93.7608C94.0736 36.4425 94.3839 36.3513 94.6344 36.1633C94.732 36.0784 94.8093 35.9728 94.8607 35.8543C94.912 35.7358 94.9362 35.6074 94.9313 35.4784C94.9316 35.3806 94.9175 35.2834 94.8896 35.1897C94.8541 35.0855 94.8028 34.9873 94.7375 34.8986C94.6435 34.7818 94.5159 34.6965 94.3718 34.654C94.1724 34.5851 93.962 34.5528 93.751 34.5586L93.3461 34.5537ZM100.838 39.6906H99.9006L101.162 33.2671L103.248 37.9147L105.353 33.2671L106.499 39.6955H105.564L104.953 36.0899L103.206 39.9743L101.488 36.0801L100.86 39.6955L100.838 39.6906ZM114.391 33.7074V34.5684H111.998V36.085H114.32V36.946H111.998V38.8295H114.391V39.6906H111.081V33.7123L114.391 33.7074ZM119.831 39.6906H118.914V33.3087L123.267 37.856V33.7123H124.185V40.0722L119.831 35.5248V39.7053V39.6906ZM131.998 34.5684H130.621V39.6906H129.704V34.5733H128.339V33.7123H132.02L131.998 34.5684Z" fill="white"/>
</g>
<defs>
<clipPath id="clip0">
<rect width="132" height="48" fill="white"/>
</clipPath>
</defs>
</svg>
