<svg width="145" height="41" viewBox="0 0 145 41" fill="none" xmlns="http://www.w3.org/2000/svg">
<path fill-rule="evenodd" clip-rule="evenodd" d="M51.9004 28.1628V12.2325L61.5227 21.6046C62.1083 22.1977 62.648 22.8139 63.1647 23.4651V12.8372H65.4267V28.7674L55.6207 19.2209C55.081 18.686 54.5988 18.1279 54.1624 17.5V28.1628H51.9004ZM132.863 28.1628L137.778 20.1395L133.437 12.8372H136.021L138.203 16.5814C138.49 17.0698 138.754 17.593 139.006 18.1046C139.271 17.593 139.546 17.1046 139.833 16.6046L142.141 12.8372H144.656L140.235 20.1046L145 28.1628H142.279L139.753 23.8139C139.477 23.3139 139.213 22.7791 138.949 22.2674C138.696 22.7791 138.409 23.3023 138.122 23.7907L135.481 28.1628H132.863ZM120.141 28.1628V12.8372H128.592V14.9651H122.598V18.8023H128.592V20.9884H122.598V25.9418H128.592V28.1744H120.141V28.1628ZM109.118 28.7674L102.354 12.8372H104.915L108.302 21.0116C108.647 21.8139 108.922 22.6163 109.106 23.4651C109.301 22.6279 109.588 21.8023 109.933 21.0116L113.309 12.8372H115.858L109.118 28.7674ZM89.0232 25.907H91.0901C93.5014 25.907 95.4419 25.593 96.418 23.0465C96.705 22.3139 96.8543 21.4535 96.8543 20.4767C96.8543 19.5 96.705 18.6395 96.418 17.907C95.396 15.2674 93.3062 15.0465 90.7915 15.0465H89.0118V25.907H89.0232ZM86.566 28.1628V12.8372H89.8844C93.5933 12.8372 97.0839 12.9651 98.7489 16.8837C99.1967 17.9418 99.4264 19.1511 99.4264 20.5232C99.4264 21.8837 99.1967 23.093 98.7489 24.1395C97.1758 27.8139 94.0755 28.1744 90.5504 28.1744H86.566V28.1628ZM72.1095 28.1628V12.8372H80.5607V14.9651H74.5668V18.8023H80.5607V20.9884H74.5668V25.9418H80.5607V28.1744H72.1095V28.1628Z" fill="white"/>
<path fill-rule="evenodd" clip-rule="evenodd" d="M0.631537 15.407V25.593C0.218167 23.9651 0 22.2558 0 20.5C0 18.7442 0.218167 17.0349 0.631537 15.407ZM33.4714 27.1512V13.8488C33.5863 14.0698 33.6896 14.3023 33.7815 14.5349V5.18605C33.9996 5.38372 34.2063 5.5814 34.413 5.77907V16.2791C34.8034 17.6163 35.0101 19.0349 35.0101 20.5C35.0101 21.9651 34.8034 23.3837 34.413 24.7209V35.2209C34.2063 35.4186 33.9996 35.6163 33.7815 35.814V26.4651C33.6896 26.6977 33.5863 26.9302 33.4714 27.1512ZM21.5067 0C21.7134 0.0116279 21.9315 0.0232558 22.1382 0.0465116V5.69767C22.2416 5.7093 22.3449 5.72093 22.4483 5.74419V13.1163C22.5516 13.1512 22.6549 13.186 22.7583 13.2209V27.7791C22.6549 27.814 22.5516 27.8488 22.4483 27.8837V35.2558C22.3449 35.2674 22.2416 35.2907 22.1382 35.3023V40.9535C21.9315 40.9767 21.7249 40.9884 21.5067 41V35.3721C21.4033 35.3837 21.3 35.3837 21.1967 35.3954V28.1512C21.0933 28.1628 20.99 28.1744 20.8866 28.186V12.8256C20.99 12.8372 21.0933 12.8488 21.1967 12.8605V5.60465C21.3 5.61628 21.4033 5.61628 21.5067 5.62791V0ZM24.5725 0.430233C24.7792 0.476744 24.9974 0.523256 25.204 0.581395V6.44186C25.3074 6.47674 25.4107 6.52326 25.5141 6.55814V14.9302C25.6174 15.0349 25.7322 15.1395 25.8241 15.2558V25.7791C25.7208 25.8837 25.6174 26 25.5141 26.1047V34.4767C25.4107 34.5116 25.3074 34.5581 25.204 34.593V40.4535C24.9974 40.5116 24.7907 40.5581 24.5725 40.6047V34.814C24.4692 34.8488 24.3658 34.8721 24.2625 34.907V27.1047C24.1591 27.1744 24.0558 27.2326 23.9525 27.2907V13.7442C24.0558 13.8023 24.1591 13.8605 24.2625 13.9302V6.12791C24.3658 6.16279 24.4692 6.18605 24.5725 6.22093V0.430233ZM27.6498 1.36047C27.8565 1.44186 28.0747 1.53488 28.2814 1.61628V7.95349C28.3847 8.02326 28.488 8.09302 28.5914 8.16279V32.814C28.488 32.8837 28.3847 32.9535 28.2814 33.0233V39.3605C28.0747 39.4535 27.868 39.5349 27.6498 39.6163V33.407C27.5465 33.4651 27.4431 33.5233 27.3398 33.5814V23.3721C27.2479 23.6047 27.1446 23.8372 27.0298 24.0581V16.907C27.1446 17.1279 27.2479 17.3605 27.3398 17.593V7.39535C27.4431 7.45349 27.5465 7.51163 27.6498 7.56977V1.36047ZM30.7156 2.88372C30.9223 3.01163 31.1405 3.15116 31.3472 3.27907V10.6395C31.4505 10.7674 31.5539 10.8837 31.6572 11.0116V29.9767C31.5539 30.1047 31.4505 30.2326 31.3472 30.3488V37.7093C31.1405 37.8488 30.9338 37.9767 30.7156 38.1047V31.0233C30.6123 31.1279 30.509 31.2326 30.4056 31.3372V9.65116C30.509 9.75581 30.6123 9.86047 30.7156 9.96512V2.88372ZM36.8588 8.67442C37.0769 8.98837 37.2836 9.31395 37.4903 9.63954V31.3721C37.2836 31.6977 37.0769 32.0233 36.8588 32.3372V8.67442ZM39.9361 15.407C40.3494 17.0349 40.5676 18.7442 40.5676 20.5C40.5676 22.2558 40.3494 23.9651 39.9361 25.593V15.407ZM19.0609 41C18.8542 40.9884 18.6361 40.9767 18.4294 40.9535V35.3023C18.326 35.2907 18.2227 35.2791 18.1194 35.2558V27.8837C18.016 27.8488 17.9127 27.814 17.8093 27.7791V13.2209C17.9127 13.186 18.016 13.1512 18.1194 13.1163V5.73256C18.2227 5.72093 18.326 5.69767 18.4294 5.68605V0.0465116C18.6361 0.0232558 18.8542 0.0116279 19.0609 0V5.62791C19.1643 5.61628 19.2676 5.61628 19.3709 5.60465V12.8488C19.4743 12.8372 19.5776 12.8256 19.681 12.814V28.1744C19.5776 28.1628 19.4743 28.1512 19.3709 28.1395V35.3837C19.2676 35.3721 19.1643 35.3721 19.0609 35.3605V41ZM15.9836 40.5698C15.7769 40.5233 15.5588 40.4767 15.3521 40.4186V34.5581C15.2487 34.5233 15.1454 34.4767 15.0421 34.4419V26.0698C14.9387 25.9651 14.8239 25.8605 14.732 25.7442V15.2326C14.8354 15.1279 14.9387 15.0116 15.0421 14.907V6.53488C15.1454 6.5 15.2487 6.45349 15.3521 6.4186V0.569767C15.5588 0.511628 15.7654 0.465116 15.9836 0.418605V6.2093C16.087 6.17442 16.1903 6.15116 16.2936 6.11628V13.9186C16.397 13.8488 16.5003 13.7907 16.6037 13.7326V27.2326C16.5003 27.1744 16.397 27.1163 16.2936 27.0465V34.8488C16.1903 34.814 16.087 34.7907 15.9836 34.7558V40.5698ZM12.9178 39.6395C12.7111 39.5581 12.4929 39.4651 12.2863 39.3837V33.0465C12.1829 32.9767 12.0796 32.907 11.9762 32.8372V8.17442C12.0796 8.10465 12.1829 8.03488 12.2863 7.96512V1.61628C12.4929 1.52326 12.6996 1.44186 12.9178 1.36047V7.56977C13.0211 7.51163 13.1245 7.45349 13.2278 7.39535V17.6047C13.3197 17.3721 13.423 17.1395 13.5378 16.9186V24.0814C13.423 23.8605 13.3197 23.6279 13.2278 23.3954V33.6047C13.1245 33.5465 13.0211 33.4884 12.9178 33.4302V39.6395ZM9.84049 38.1163C9.6338 37.9884 9.41564 37.8488 9.20895 37.7209V30.3605C9.10561 30.2326 9.00227 30.1047 8.89892 29.9767V11.0116C9.00227 10.8837 9.10561 10.7558 9.20895 10.6395V3.2907C9.41564 3.15116 9.62232 3.02326 9.84049 2.89535V9.97674C9.94383 9.86047 10.0587 9.75581 10.162 9.65116V31.3372C10.0587 31.2326 9.95531 31.1279 9.85197 31.0233V38.1163H9.84049ZM6.77466 35.814C6.5565 35.6163 6.34981 35.4186 6.14313 35.2209V24.7209C5.75272 23.3837 5.54604 21.9651 5.54604 20.5C5.54604 19.0349 5.75272 17.6163 6.14313 16.2791V5.77907C6.34981 5.56977 6.5565 5.37209 6.77466 5.18605V14.5349C6.87801 14.3023 6.98135 14.0814 7.08469 13.8488V27.1512C6.96987 26.9302 6.86652 26.6977 6.77466 26.4651V35.814ZM3.69736 32.3256C3.47919 32.0116 3.27251 31.686 3.06582 31.3605V9.62791C3.27251 9.30233 3.47919 8.98837 3.69736 8.67442V32.3256Z" fill="white"/>
</svg>
