<svg width="16" height="16" viewBox="0 0 16 16" fill="none" xmlns="http://www.w3.org/2000/svg">
<path opacity="0.5" d="M12.3857 8.66551C12.0565 8.33634 11.5244 8.33634 11.1953 8.66551L9.85335 10.0074C9.23121 9.82223 8.07028 9.40129 7.33449 8.66551C6.5987 7.92972 6.17777 6.76879 5.99256 6.14665L7.33449 4.80472C7.66366 4.47555 7.66366 3.9435 7.33449 3.61433L3.96704 0.246876C3.63787 -0.0822921 3.10582 -0.0822921 2.77665 0.246876L0.493514 2.53001C0.173606 2.84992 -0.0065526 3.28937 0.000182301 3.73808C0.0195452 4.9369 0.336928 9.10075 3.61851 12.3823C6.90009 15.6639 11.0639 15.9805 12.2636 16.0007C12.2678 16.0007 12.283 16.0007 12.2872 16.0007C12.7317 16.0007 13.1518 15.8256 13.47 15.5073L15.7531 13.2242C16.0823 12.895 16.0823 12.363 15.7531 12.0338L12.3857 8.66551ZM12.2788 14.3161C11.2281 14.2984 7.63335 14.0164 4.8089 11.1911C1.97519 8.35738 1.70075 4.75 1.68391 3.7204L3.37184 2.03247L5.5489 4.20953L4.46037 5.29805C4.25917 5.49842 4.1733 5.78802 4.23139 6.06583C4.25159 6.16265 4.74576 8.45841 6.14326 9.8559C7.54075 11.2534 9.83651 11.7476 9.93332 11.7678C10.2137 11.8275 10.5007 11.7408 10.7011 11.5396L11.7905 10.4511L13.9675 12.6282L12.2788 14.3161Z" fill="#010B24"/>
</svg>
