<svg width="11" height="11" viewBox="0 0 11 11" fill="none" xmlns="http://www.w3.org/2000/svg">
<g clip-path="url(#clip0)">
<path d="M2.25933 10.0385C2.17371 10.0385 2.09161 10.0045 2.03107 9.94394C1.97053 9.8834 1.93652 9.80129 1.93652 9.71568V0.614039C1.93655 0.557356 1.9515 0.501679 1.97987 0.452608C2.00824 0.403537 2.04904 0.362802 2.09815 0.3345C2.14726 0.306198 2.20296 0.291327 2.25964 0.291382C2.31632 0.291437 2.37199 0.306418 2.42105 0.334816L8.55428 4.88564C8.6032 4.91401 8.64381 4.95474 8.67203 5.00375C8.70026 5.05275 8.71511 5.10831 8.71511 5.16486C8.71511 5.22141 8.70026 5.27697 8.67203 5.32597C8.64381 5.37498 8.6032 5.41571 8.55428 5.44408L2.42105 9.9949C2.37193 10.0234 2.31613 10.0385 2.25933 10.0385Z" fill="white"/>
</g>
<defs>
<clipPath id="clip0">
<rect width="10.3297" height="10.3297" fill="white"/>
</clipPath>
</defs>
</svg>
